<?xml version="1.0" encoding="UTF-8" standalone="no"?>
<!-- Created with Inkscape (http://www.inkscape.org/) -->

<svg
   xmlns:dc="http://purl.org/dc/elements/1.1/"
   xmlns:cc="http://creativecommons.org/ns#"
   xmlns:rdf="http://www.w3.org/1999/02/22-rdf-syntax-ns#"
   xmlns:svg="http://www.w3.org/2000/svg"
   xmlns="http://www.w3.org/2000/svg"
   xmlns:sodipodi="http://sodipodi.sourceforge.net/DTD/sodipodi-0.dtd"
   xmlns:inkscape="http://www.inkscape.org/namespaces/inkscape"
   width="12.7mm"
   height="12.7mm"
   viewBox="0 0 12.7 12.7"
   version="1.1"
   id="svg2067"
   inkscape:version="0.92.4 (5da689c313, 2019-01-14)"
   sodipodi:docname="icon_button_pressed.svg">
  <defs
     id="defs2061" />
  <sodipodi:namedview
     id="base"
     pagecolor="#ffffff"
     bordercolor="#666666"
     borderopacity="1.0"
     inkscape:pageopacity="0.0"
     inkscape:pageshadow="2"
     inkscape:zoom="11.2"
     inkscape:cx="30.115635"
     inkscape:cy="18.391677"
     inkscape:document-units="mm"
     inkscape:current-layer="layer1"
     showgrid="false"
     inkscape:object-paths="true"
     inkscape:object-nodes="true"
     inkscape:snap-intersection-paths="true"
     inkscape:snap-smooth-nodes="true"
     inkscape:snap-midpoints="true"
     inkscape:snap-object-midpoints="true"
     inkscape:snap-center="true"
     inkscape:snap-bbox="true"
     inkscape:bbox-paths="true"
     inkscape:snap-bbox-edge-midpoints="true"
     inkscape:snap-bbox-midpoints="true"
     inkscape:bbox-nodes="true"
     fit-margin-top="0"
     fit-margin-left="0"
     fit-margin-right="0"
     fit-margin-bottom="0"
     inkscape:window-width="1920"
     inkscape:window-height="1001"
     inkscape:window-x="-9"
     inkscape:window-y="-9"
     inkscape:window-maximized="1" />
  <metadata
     id="metadata2064">
    <rdf:RDF>
      <cc:Work
         rdf:about="">
        <dc:format>image/svg+xml</dc:format>
        <dc:type
           rdf:resource="http://purl.org/dc/dcmitype/StillImage" />
        <dc:title></dc:title>
      </cc:Work>
    </rdf:RDF>
  </metadata>
  <g
     inkscape:label="Layer 1"
     inkscape:groupmode="layer"
     id="layer1"
     transform="translate(-62.808337,-47.215556)">
    <path
       style="opacity:1;fill:#e1e1e1;fill-opacity:1;stroke:none;stroke-width:2.69568515;stroke-linecap:round;stroke-linejoin:round;stroke-miterlimit:4;stroke-dasharray:none;stroke-opacity:1;paint-order:markers fill stroke"
       d="m 67.074116,48.273889 h 5.226838 c 0.888445,0 1.690289,0.357625 2.270023,0.937362 0.579733,0.579737 0.937356,1.381586 0.937356,2.270035 v 5.226871 c 0,1.776899 -1.430491,3.207399 -3.207379,3.207399 h -5.226838 c -1.776888,0 -3.207379,-1.4305 -3.207379,-3.207399 v -5.226871 c 0,-1.776898 1.430491,-3.207397 3.207379,-3.207397 z"
       id="rect2612"
       inkscape:connector-curvature="0"
       sodipodi:nodetypes="ssssssssss" />
    <path
       style="opacity:1;fill:#d9d9d9;fill-opacity:1;stroke:none;stroke-width:2.69568515;stroke-linecap:round;stroke-linejoin:round;stroke-miterlimit:4;stroke-dasharray:none;stroke-opacity:1;paint-order:markers fill stroke"
       d="m 75.498544,51.381735 c -0.0011,0.03103 -0.0027,0.06204 -0.0049,0.09302 -0.0096,0.0966 -0.02415,0.192647 -0.04341,0.287795 -0.01925,0.09508 -0.04324,0.189139 -0.0719,0.281823 -0.02873,0.09272 -0.06208,0.18394 -0.09991,0.273325 -0.03779,0.08934 -0.08003,0.176724 -0.126555,0.261841 -0.04651,0.08517 -0.09726,0.16796 -0.15205,0.248059 -0.05475,0.08006 -0.113471,0.157328 -0.175937,0.231522 -0.06248,0.07423 -0.128638,0.145294 -0.198218,0.212918 -0.06964,0.06761 -0.142616,0.131697 -0.218657,0.192017 -0.07599,0.06034 -0.154944,0.11683 -0.236574,0.169277 -0.08168,0.05241 -0.165923,0.100706 -0.252423,0.144701 -0.08647,0.04398 -0.175086,0.08362 -0.265514,0.118748 -0.09044,0.03521 -0.182578,0.06587 -0.276079,0.09188 -0.09351,0.02593 -0.188258,0.04716 -0.283889,0.06362 -0.09559,0.01652 -0.191949,0.02824 -0.288711,0.03514 -0.06857,0.0048 -0.137288,0.0072 -0.206027,0.0071 l -5.820635,2.36e-4 c -0.06874,1.7e-5 -0.137458,0.0025 -0.206026,0.0074 -0.09677,0.0069 -0.19312,0.01863 -0.288712,0.03514 -0.09563,0.01646 -0.190379,0.03769 -0.283889,0.06362 -0.0935,0.02593 -0.185638,0.05651 -0.276079,0.09164 -0.09044,0.0352 -0.179049,0.07492 -0.265514,0.118977 -0.08642,0.044 -0.170592,0.09229 -0.252193,0.144701 -0.08171,0.05244 -0.160743,0.108937 -0.236804,0.169278 -0.07596,0.06033 -0.148864,0.12441 -0.218428,0.192015 -0.06965,0.06754 -0.135885,0.138529 -0.198447,0.212689 -0.06248,0.07427 -0.121191,0.151617 -0.175937,0.231752 -0.05478,0.08002 -0.105527,0.162737 -0.15205,0.24783 -0.04653,0.08519 -0.08876,0.172658 -0.126555,0.26207 -0.03776,0.08939 -0.07103,0.180612 -0.09968,0.273325 -0.02872,0.09268 -0.05279,0.186739 -0.07212,0.281823 -0.01925,0.09507 -0.03374,0.191047 -0.04341,0.287565 -0.002,0.03121 -0.0036,0.06245 -0.0046,0.09371 0.02647,0.850575 0.379426,1.61445 0.938713,2.171108 0.559285,0.556656 1.324904,0.906095 2.176711,0.927799 0.02793,7.11e-4 0.05389,0.0083 0.082,0.0083 h 5.226674 c 1.776887,0 3.207528,-1.430419 3.207528,-3.207318 v -2.613635 -2.613353 c 0,-0.0341 -0.0088,-0.06562 -0.0099,-0.09945 z"
       id="path2663"
       inkscape:connector-curvature="0"
       sodipodi:nodetypes="ccccccccccccccccccccccccccccccccccscssscsc" />
  </g>
</svg>
