<?xml version="1.0" encoding="UTF-8" standalone="no"?>
<!-- Created with Inkscape (http://www.inkscape.org/) -->

<svg
   xmlns:dc="http://purl.org/dc/elements/1.1/"
   xmlns:cc="http://creativecommons.org/ns#"
   xmlns:rdf="http://www.w3.org/1999/02/22-rdf-syntax-ns#"
   xmlns:svg="http://www.w3.org/2000/svg"
   xmlns="http://www.w3.org/2000/svg"
   xmlns:sodipodi="http://sodipodi.sourceforge.net/DTD/sodipodi-0.dtd"
   xmlns:inkscape="http://www.inkscape.org/namespaces/inkscape"
   width="34.395836mm"
   height="12.7mm"
   viewBox="0 0 34.395836 12.7"
   version="1.1"
   id="svg2067"
   sodipodi:docname="text_button_pressed.svg"
   inkscape:version="0.92.4 (5da689c313, 2019-01-14)">
  <defs
     id="defs2061" />
  <sodipodi:namedview
     id="base"
     pagecolor="#ffffff"
     bordercolor="#666666"
     borderopacity="1.0"
     inkscape:pageopacity="0.0"
     inkscape:pageshadow="2"
     inkscape:zoom="44.8"
     inkscape:cx="120.66274"
     inkscape:cy="38.435296"
     inkscape:document-units="mm"
     inkscape:current-layer="layer1"
     showgrid="false"
     inkscape:object-paths="true"
     inkscape:object-nodes="true"
     inkscape:snap-intersection-paths="true"
     inkscape:snap-smooth-nodes="true"
     inkscape:snap-midpoints="true"
     inkscape:snap-object-midpoints="true"
     inkscape:snap-center="true"
     inkscape:snap-bbox="true"
     inkscape:bbox-paths="true"
     inkscape:snap-bbox-edge-midpoints="true"
     inkscape:snap-bbox-midpoints="true"
     inkscape:bbox-nodes="true"
     fit-margin-top="0"
     fit-margin-left="0"
     fit-margin-right="0"
     fit-margin-bottom="0"
     inkscape:window-width="1920"
     inkscape:window-height="1001"
     inkscape:window-x="-9"
     inkscape:window-y="-9"
     inkscape:window-maximized="1" />
  <metadata
     id="metadata2064">
    <rdf:RDF>
      <cc:Work
         rdf:about="">
        <dc:format>image/svg+xml</dc:format>
        <dc:type
           rdf:resource="http://purl.org/dc/dcmitype/StillImage" />
        <dc:title></dc:title>
      </cc:Work>
    </rdf:RDF>
  </metadata>
  <g
     inkscape:label="Layer 1"
     inkscape:groupmode="layer"
     id="layer1"
     transform="translate(-62.808337,-47.215556)">
    <path
       style="opacity:1;fill:#e1e1e1;fill-opacity:1;stroke:none;stroke-width:2.77270794;stroke-linecap:round;stroke-linejoin:round;stroke-miterlimit:4;stroke-dasharray:none;stroke-opacity:1;paint-order:markers fill stroke"
       d="m 66.833178,47.941093 h 27.071989 c 0.913825,0 1.738577,0.367845 2.334871,0.96415 0.596294,0.596304 0.964135,1.421069 0.964135,2.334908 v 5.376244 c 0,1.827679 -1.471356,3.299059 -3.299006,3.299059 H 66.833178 c -1.827649,0 -3.299005,-1.47138 -3.299005,-3.299059 v -5.376244 c 0,-1.827678 1.471356,-3.299058 3.299005,-3.299058 z"
       id="rect2612"
       inkscape:connector-curvature="0"
       sodipodi:nodetypes="ssssssssss" />
    <path
       style="opacity:1;fill:#d9d9d9;fill-opacity:1;stroke:none;stroke-width:2.77270794;stroke-linecap:round;stroke-linejoin:round;stroke-miterlimit:4;stroke-dasharray:none;stroke-opacity:1;paint-order:markers fill stroke"
       d="m 97.194134,51.137797 c -9.16e-4,0.03192 -0.003,0.06373 -0.0052,0.0956 -0.0099,0.09936 -0.0246,0.198239 -0.04444,0.296106 -0.01979,0.0978 -0.04443,0.194571 -0.0739,0.289904 -0.02953,0.09537 -0.06392,0.18918 -0.102836,0.28112 -0.03886,0.09189 -0.08237,0.181685 -0.130225,0.269234 -0.04785,0.0876 -0.09971,0.172893 -0.156062,0.255282 -0.05631,0.08235 -0.117133,0.161914 -0.181385,0.238228 -0.06427,0.07635 -0.132035,0.149035 -0.203605,0.218592 -0.07163,0.06954 -0.146576,0.135876 -0.224792,0.19792 -0.07816,0.06206 -0.159433,0.120204 -0.243396,0.17415 -0.08401,0.05391 -0.17096,0.103576 -0.259932,0.148828 -0.08894,0.04524 -0.179837,0.08582 -0.272851,0.121956 -0.09302,0.03622 -0.188048,0.06782 -0.284221,0.09457 -0.09618,0.02667 -0.193609,0.04818 -0.291973,0.06511 -0.09832,0.01699 -0.197093,0.02908 -0.296622,0.03617 -0.07053,0.0049 -0.141173,0.0073 -0.211873,0.0072 l -27.683064,5.17e-4 c -0.0707,1.7e-5 -0.141348,0.0028 -0.211874,0.0078 -0.09953,0.0071 -0.198816,0.01919 -0.297139,0.03617 -0.09836,0.01693 -0.195791,0.03844 -0.291972,0.06511 -0.09617,0.02667 -0.190679,0.05844 -0.283704,0.09457 -0.09302,0.03621 -0.184434,0.07664 -0.273368,0.121956 -0.08889,0.04526 -0.175484,0.09492 -0.259416,0.148828 -0.08404,0.05394 -0.165163,0.112085 -0.243396,0.17415 -0.07813,0.06205 -0.153241,0.128384 -0.224792,0.197921 -0.07164,0.06947 -0.139772,0.142312 -0.204122,0.218591 -0.06426,0.07639 -0.124558,0.155803 -0.180868,0.238228 -0.05635,0.08231 -0.10821,0.167241 -0.156062,0.254765 -0.04786,0.08763 -0.09135,0.177784 -0.130225,0.269751 -0.03884,0.09194 -0.07337,0.185757 -0.102836,0.28112 -0.02954,0.09533 -0.05402,0.192102 -0.0739,0.289904 -0.0198,0.09779 -0.03501,0.196313 -0.04496,0.29559 -0.0021,0.0321 -0.0037,0.06448 -0.0047,0.09663 0.02723,0.874882 0.390569,1.660372 0.965833,2.232938 0.575263,0.572565 1.362482,0.93214 2.238623,0.954464 0.02873,7.31e-4 0.05532,0.0088 0.08423,0.0088 h 27.071733 c 0.113884,0 0.228248,-0.0062 0.34158,-0.01757 3.43e-4,-3.5e-5 6.93e-4,3.5e-5 0.001,0 1.665563,-0.170262 2.956409,-1.569438 2.956409,-3.281454 v -5.376415 c 0,-0.0033 -5.08e-4,-0.0065 -5.16e-4,-0.0098 -0.0014,-0.03129 -0.0084,-0.06105 -0.0093,-0.0925 z"
       id="path2663"
       inkscape:connector-curvature="0" />
  </g>
</svg>
