<?xml version="1.0" encoding="UTF-8" standalone="no"?>
<!-- Created with Inkscape (http://www.inkscape.org/) -->

<svg
   xmlns:dc="http://purl.org/dc/elements/1.1/"
   xmlns:cc="http://creativecommons.org/ns#"
   xmlns:rdf="http://www.w3.org/1999/02/22-rdf-syntax-ns#"
   xmlns:svg="http://www.w3.org/2000/svg"
   xmlns="http://www.w3.org/2000/svg"
   xmlns:sodipodi="http://sodipodi.sourceforge.net/DTD/sodipodi-0.dtd"
   xmlns:inkscape="http://www.inkscape.org/namespaces/inkscape"
   width="34.395836mm"
   height="12.7mm"
   viewBox="0 0 34.395836 12.7"
   version="1.1"
   id="svg2067"
   sodipodi:docname="text_button_pressed.svg"
   inkscape:version="0.92.4 (5da689c313, 2019-01-14)">
  <defs
     id="defs2061" />
  <sodipodi:namedview
     id="base"
     pagecolor="#ffffff"
     bordercolor="#666666"
     borderopacity="1.0"
     inkscape:pageopacity="0.0"
     inkscape:pageshadow="2"
     inkscape:zoom="5.6"
     inkscape:cx="85.869085"
     inkscape:cy="21.495479"
     inkscape:document-units="mm"
     inkscape:current-layer="layer1"
     showgrid="false"
     inkscape:object-paths="true"
     inkscape:object-nodes="true"
     inkscape:snap-intersection-paths="true"
     inkscape:snap-smooth-nodes="true"
     inkscape:snap-midpoints="true"
     inkscape:snap-object-midpoints="true"
     inkscape:snap-center="true"
     inkscape:snap-bbox="true"
     inkscape:bbox-paths="true"
     inkscape:snap-bbox-edge-midpoints="true"
     inkscape:snap-bbox-midpoints="true"
     inkscape:bbox-nodes="true"
     fit-margin-top="0"
     fit-margin-left="0"
     fit-margin-right="0"
     fit-margin-bottom="0"
     inkscape:window-width="1920"
     inkscape:window-height="1001"
     inkscape:window-x="-9"
     inkscape:window-y="-9"
     inkscape:window-maximized="1" />
  <metadata
     id="metadata2064">
    <rdf:RDF>
      <cc:Work
         rdf:about="">
        <dc:format>image/svg+xml</dc:format>
        <dc:type
           rdf:resource="http://purl.org/dc/dcmitype/StillImage" />
        <dc:title></dc:title>
      </cc:Work>
    </rdf:RDF>
  </metadata>
  <g
     inkscape:label="Layer 1"
     inkscape:groupmode="layer"
     id="layer1"
     transform="translate(-62.808337,-47.215556)">
    <path
       style="opacity:1;fill:#e1e1e1;fill-opacity:1;stroke:none;stroke-width:2.77270794;stroke-linecap:round;stroke-linejoin:round;stroke-miterlimit:4;stroke-dasharray:none;stroke-opacity:1;paint-order:markers fill stroke"
       d="m 66.788862,47.941195 h 27.071989 c 0.913825,0 1.738577,0.367845 2.334871,0.96415 0.596294,0.596304 0.964135,1.421069 0.964135,2.334908 v 5.376244 c 0,1.827679 -1.471356,3.299059 -3.299006,3.299059 H 66.788862 c -1.827649,0 -3.299005,-1.47138 -3.299005,-3.299059 v -5.376244 c 0,-1.827678 1.471356,-3.299058 3.299005,-3.299058 z"
       id="rect2612"
       inkscape:connector-curvature="0"
       sodipodi:nodetypes="ssssssssss" />
    <path
       style="opacity:1;fill:#d9d9d9;fill-opacity:1;stroke:none;stroke-width:2.77270794;stroke-linecap:round;stroke-linejoin:round;stroke-miterlimit:4;stroke-dasharray:none;stroke-opacity:1;paint-order:markers fill stroke"
       d="m 97.149791,51.137857 c -9.15e-4,0.03192 -0.0027,0.06381 -0.0049,0.09568 -0.0099,0.09936 -0.02482,0.198153 -0.04466,0.29602 -0.01979,0.0978 -0.04448,0.194544 -0.07395,0.289877 -0.02953,0.09537 -0.06385,0.189196 -0.102765,0.281136 -0.03886,0.09189 -0.08232,0.181774 -0.130173,0.269323 -0.04785,0.0876 -0.10004,0.17276 -0.156395,0.255149 -0.05631,0.08235 -0.116713,0.161824 -0.180963,0.238138 -0.06427,0.07635 -0.132311,0.149446 -0.20388,0.219003 -0.07163,0.06954 -0.146689,0.13546 -0.224905,0.197504 -0.07816,0.06206 -0.159367,0.120169 -0.243329,0.174115 -0.08401,0.05391 -0.170663,0.103584 -0.259636,0.148836 -0.08894,0.04524 -0.180085,0.08601 -0.273099,0.122142 -0.09302,0.03622 -0.187793,0.06775 -0.283966,0.0945 -0.09618,0.02667 -0.193635,0.04851 -0.291998,0.06544 -0.09832,0.01699 -0.19743,0.02905 -0.296959,0.03614 -0.07053,0.0049 -0.141212,0.0074 -0.211912,0.0073 l -27.68275,2.43e-4 c -0.0707,1.7e-5 -0.141385,0.0026 -0.211911,0.0076 -0.09953,0.0071 -0.198637,0.01916 -0.29696,0.03614 -0.09836,0.01693 -0.195818,0.03877 -0.291999,0.06544 -0.09617,0.02667 -0.190941,0.05813 -0.283966,0.09426 -0.09302,0.03621 -0.184164,0.07706 -0.273098,0.122377 -0.08889,0.04526 -0.175466,0.09493 -0.259398,0.148837 -0.08404,0.05394 -0.165335,0.11205 -0.243568,0.174115 -0.07813,0.06205 -0.153118,0.127966 -0.224669,0.197503 -0.07164,0.06947 -0.139766,0.142488 -0.204116,0.218767 -0.06426,0.07639 -0.124653,0.15595 -0.180963,0.238375 -0.05635,0.08231 -0.108542,0.167388 -0.156394,0.254912 -0.04786,0.08763 -0.0913,0.177593 -0.130171,0.26956 -0.03884,0.09194 -0.07306,0.185773 -0.10253,0.281136 -0.02954,0.09533 -0.0543,0.192075 -0.07418,0.289877 -0.0198,0.09779 -0.0347,0.196506 -0.04465,0.295783 -0.0021,0.0321 -0.0037,0.06424 -0.0047,0.09639 0.02723,0.874882 0.390265,1.660587 0.965529,2.233153 0.575263,0.572565 1.362754,0.93199 2.238895,0.954314 0.02873,7.31e-4 0.05543,0.0085 0.08434,0.0085 h 27.071822 c 1.827645,0 3.65215,-1.505709 3.299157,-3.298976 v -2.688272 -2.688037 c 0,-0.03507 -0.0091,-0.0675 -0.01015,-0.102296 z"
       id="path2663"
       inkscape:connector-curvature="0"
       sodipodi:nodetypes="ccccccccccccccccccccccccccccccccccscssscscc" />
  </g>
</svg>
