<?xml version="1.0" encoding="UTF-8" standalone="no"?>
<!-- Created with Inkscape (http://www.inkscape.org/) -->

<svg
   xmlns:dc="http://purl.org/dc/elements/1.1/"
   xmlns:cc="http://creativecommons.org/ns#"
   xmlns:rdf="http://www.w3.org/1999/02/22-rdf-syntax-ns#"
   xmlns:svg="http://www.w3.org/2000/svg"
   xmlns="http://www.w3.org/2000/svg"
   xmlns:sodipodi="http://sodipodi.sourceforge.net/DTD/sodipodi-0.dtd"
   xmlns:inkscape="http://www.inkscape.org/namespaces/inkscape"
   width="34.395836mm"
   height="12.7mm"
   viewBox="0 0 34.395836 12.7"
   version="1.1"
   id="svg2067"
   sodipodi:docname="text_button.svg"
   inkscape:version="0.92.4 (5da689c313, 2019-01-14)">
  <defs
     id="defs2061" />
  <sodipodi:namedview
     id="base"
     pagecolor="#ffffff"
     bordercolor="#666666"
     borderopacity="1.0"
     inkscape:pageopacity="0.0"
     inkscape:pageshadow="2"
     inkscape:zoom="44.8"
     inkscape:cx="120.66274"
     inkscape:cy="38.435296"
     inkscape:document-units="mm"
     inkscape:current-layer="layer1"
     showgrid="false"
     inkscape:object-paths="true"
     inkscape:object-nodes="true"
     inkscape:snap-intersection-paths="true"
     inkscape:snap-smooth-nodes="true"
     inkscape:snap-midpoints="true"
     inkscape:snap-object-midpoints="true"
     inkscape:snap-center="true"
     inkscape:snap-bbox="true"
     inkscape:bbox-paths="true"
     inkscape:snap-bbox-edge-midpoints="true"
     inkscape:snap-bbox-midpoints="true"
     inkscape:bbox-nodes="true"
     fit-margin-top="0"
     fit-margin-left="0"
     fit-margin-right="0"
     fit-margin-bottom="0"
     inkscape:window-width="1920"
     inkscape:window-height="1001"
     inkscape:window-x="-9"
     inkscape:window-y="-9"
     inkscape:window-maximized="1" />
  <metadata
     id="metadata2064">
    <rdf:RDF>
      <cc:Work
         rdf:about="">
        <dc:format>image/svg+xml</dc:format>
        <dc:type
           rdf:resource="http://purl.org/dc/dcmitype/StillImage" />
        <dc:title />
      </cc:Work>
    </rdf:RDF>
  </metadata>
  <g
     inkscape:label="Layer 1"
     inkscape:groupmode="layer"
     id="layer1"
     transform="translate(-62.808337,-47.215556)">
    <path
       style="opacity:1;fill:#9f9f9f;fill-opacity:1;stroke:none;stroke-width:2.77270794;stroke-linecap:round;stroke-linejoin:round;stroke-miterlimit:4;stroke-dasharray:none;stroke-opacity:1;paint-order:markers fill stroke"
       d="m 95.514202,48.179706 -0.339246,0.339726 c -0.251891,-0.06117 -0.514997,-0.09426 -0.786222,-0.09426 H 67.316912 c -1.827649,0 -3.299159,1.471298 -3.299159,3.298976 v 5.376312 c 0,0.27478 0.0339,0.541272 0.09662,0.796157 l -0.33027,0.330512 0.714041,0.7243 c 0.596295,0.596305 1.42122,0.964131 2.335044,0.964131 h 27.071819 c 1.82765,0 3.299162,-1.471298 3.299162,-3.298976 v -5.376311 c 0,-0.913839 -0.367759,-1.738602 -0.964117,-2.334846 z"
       id="rect2614"
       inkscape:connector-curvature="0"
       sodipodi:nodetypes="ccsssscccsssssc" />
    <path
       style="opacity:1;fill:#e1e1e1;fill-opacity:1;stroke:none;stroke-width:2.77270794;stroke-linecap:round;stroke-linejoin:round;stroke-miterlimit:4;stroke-dasharray:none;stroke-opacity:1;paint-order:markers fill stroke"
       d="m 66.107342,47.215556 h 27.071989 c 0.913825,0 1.738577,0.367845 2.334871,0.96415 0.596294,0.596304 0.964135,1.421069 0.964135,2.334908 v 5.376244 c 0,1.827679 -1.471356,3.299059 -3.299006,3.299059 H 66.107342 c -1.827649,0 -3.299005,-1.47138 -3.299005,-3.299059 v -5.376244 c 0,-1.827678 1.471356,-3.299058 3.299005,-3.299058 z"
       id="rect2612"
       inkscape:connector-curvature="0"
       sodipodi:nodetypes="ssssssssss" />
    <path
       style="opacity:1;fill:#d9d9d9;fill-opacity:1;stroke:none;stroke-width:10.47952652;stroke-linecap:round;stroke-linejoin:round;stroke-miterlimit:4;stroke-dasharray:none;stroke-opacity:1;paint-order:markers fill stroke"
       d="M 127.21875 12.082031 C 127.21529 12.202674 127.20753 12.322906 127.19922 12.443359 C 127.1618 12.818893 127.10624 13.192609 127.03125 13.5625 C 126.95645 13.932138 126.86334 14.297889 126.75195 14.658203 C 126.64034 15.018657 126.51036 15.373213 126.36328 15.720703 C 126.21641 16.068004 126.05196 16.407387 125.87109 16.738281 C 125.69024 17.069368 125.49425 17.391734 125.28125 17.703125 C 125.06842 18.014369 124.83854 18.315085 124.5957 18.603516 C 124.35279 18.892083 124.09667 19.166795 123.82617 19.429688 C 123.55544 19.692516 123.27218 19.943237 122.97656 20.177734 C 122.68115 20.412292 122.37398 20.632047 122.05664 20.835938 C 121.73912 21.039692 121.41049 21.227406 121.07422 21.398438 C 120.73807 21.569423 120.39452 21.722813 120.04297 21.859375 C 119.6914 21.996269 119.33224 22.115695 118.96875 22.216797 C 118.60524 22.317597 118.237 22.398903 117.86523 22.462891 C 117.49363 22.527105 117.12031 22.572813 116.74414 22.599609 C 116.47757 22.618129 116.21057 22.627331 115.94336 22.626953 L 11.314453 22.628906 C 11.047241 22.628971 10.780227 22.639305 10.513672 22.658203 C 10.137495 22.685038 9.7622395 22.730745 9.390625 22.794922 C 9.0188707 22.858909 8.6506281 22.940216 8.2871094 23.041016 C 7.9236322 23.141816 7.5664343 23.261883 7.2148438 23.398438 C 6.8632721 23.535294 6.5177691 23.688098 6.1816406 23.859375 C 5.8456784 24.030436 5.5183952 24.218132 5.2011719 24.421875 C 4.8835404 24.625743 4.5769338 24.845502 4.28125 25.080078 C 3.9859555 25.314598 3.7020696 25.565308 3.4316406 25.828125 C 3.1608753 26.090689 2.9033688 26.365998 2.6601562 26.654297 C 2.4172838 26.943015 2.1893877 27.24316 1.9765625 27.554688 C 1.7635861 27.86578 1.5675767 28.186779 1.3867188 28.517578 C 1.2058306 28.848778 1.0414453 29.189518 0.89453125 29.537109 C 0.7477344 29.884599 0.61724205 30.239182 0.50585938 30.599609 C 0.39421213 30.959912 0.30169951 31.325667 0.2265625 31.695312 C 0.15172785 32.064913 0.094246924 32.43728 0.056640625 32.8125 C 0.048703617 32.933823 0.042842028 33.056223 0.0390625 33.177734 C 0.14197904 36.484375 1.515227 39.453159 3.6894531 41.617188 C 5.8636755 43.781213 8.8389916 45.140235 12.150391 45.224609 C 12.258976 45.227372 12.359484 45.257812 12.46875 45.257812 L 114.78711 45.257812 C 115.21754 45.257812 115.64978 45.234485 116.07812 45.191406 C 116.07942 45.191274 116.08074 45.191538 116.08203 45.191406 C 122.37707 44.547896 127.25586 39.259672 127.25586 32.789062 L 127.25586 12.46875 C 127.25586 12.456205 127.25394 12.444177 127.25391 12.431641 C 127.24848 12.313391 127.22234 12.200918 127.21875 12.082031 z "
       id="path2663"
       transform="matrix(0.26458333,0,0,0.26458333,62.808337,47.215556)" />
  </g>
</svg>
