<?xml version="1.0" encoding="UTF-8" standalone="no"?>
<!-- Created with Inkscape (http://www.inkscape.org/) -->

<svg
   xmlns:dc="http://purl.org/dc/elements/1.1/"
   xmlns:cc="http://creativecommons.org/ns#"
   xmlns:rdf="http://www.w3.org/1999/02/22-rdf-syntax-ns#"
   xmlns:svg="http://www.w3.org/2000/svg"
   xmlns="http://www.w3.org/2000/svg"
   xmlns:sodipodi="http://sodipodi.sourceforge.net/DTD/sodipodi-0.dtd"
   xmlns:inkscape="http://www.inkscape.org/namespaces/inkscape"
   width="30.691669mm"
   height="12.7mm"
   viewBox="0 0 30.69167 12.7"
   version="1.1"
   id="svg2067"
   sodipodi:docname="text_button.svg"
   inkscape:version="0.92.4 (5da689c313, 2019-01-14)">
  <defs
     id="defs2061" />
  <sodipodi:namedview
     id="base"
     pagecolor="#ffffff"
     bordercolor="#666666"
     borderopacity="1.0"
     inkscape:pageopacity="0.0"
     inkscape:pageshadow="2"
     inkscape:zoom="5.6"
     inkscape:cx="87.839836"
     inkscape:cy="11.481848"
     inkscape:document-units="mm"
     inkscape:current-layer="layer1"
     showgrid="false"
     inkscape:object-paths="true"
     inkscape:object-nodes="true"
     inkscape:snap-intersection-paths="true"
     inkscape:snap-smooth-nodes="true"
     inkscape:snap-midpoints="true"
     inkscape:snap-object-midpoints="true"
     inkscape:snap-center="true"
     inkscape:snap-bbox="true"
     inkscape:bbox-paths="true"
     inkscape:snap-bbox-edge-midpoints="true"
     inkscape:snap-bbox-midpoints="true"
     inkscape:bbox-nodes="true"
     fit-margin-top="0"
     fit-margin-left="0"
     fit-margin-right="0"
     fit-margin-bottom="0"
     inkscape:window-width="1920"
     inkscape:window-height="1001"
     inkscape:window-x="-9"
     inkscape:window-y="-9"
     inkscape:window-maximized="1" />
  <metadata
     id="metadata2064">
    <rdf:RDF>
      <cc:Work
         rdf:about="">
        <dc:format>image/svg+xml</dc:format>
        <dc:type
           rdf:resource="http://purl.org/dc/dcmitype/StillImage" />
        <dc:title></dc:title>
      </cc:Work>
    </rdf:RDF>
  </metadata>
  <g
     inkscape:label="Layer 1"
     inkscape:groupmode="layer"
     id="layer1"
     transform="translate(-62.808337,-47.215556)">
    <g
       id="g2695"
       transform="matrix(0.45716162,0,0,0.45716907,34.094776,32.524017)">
      <path
         sodipodi:nodetypes="ccsssscccsssssc"
         inkscape:connector-curvature="0"
         id="rect2614"
         d="m 126.24695,34.244855 -0.74207,0.743108 c -0.55099,-0.13379 -1.12651,-0.206189 -1.71979,-0.206189 H 72.670439 c -3.997817,0 -7.216613,3.21828 -7.216613,7.216096 v 11.760007 c 0,0.601048 0.07415,1.183965 0.211357,1.741495 l -0.722437,0.722953 1.5619,1.584315 c 1.304343,1.304343 3.108791,2.108915 5.107699,2.108915 h 51.114645 c 3.99782,0 7.21662,-3.218278 7.21662,-7.216095 V 40.939453 c 0,-1.998908 -0.80445,-3.802969 -2.10892,-5.107181 z"
         style="opacity:1;fill:#9f9f9f;fill-opacity:1;stroke:none;stroke-width:6.06500006;stroke-linecap:round;stroke-linejoin:round;stroke-miterlimit:4;stroke-dasharray:none;stroke-opacity:1;paint-order:markers fill stroke" />
      <path
         sodipodi:nodetypes="ssssssssss"
         inkscape:connector-curvature="0"
         id="rect2612"
         d="m 70.024614,32.135898 h 51.115016 c 1.99891,0 3.80298,0.804615 5.10732,2.108957 1.30434,1.304342 2.10896,3.108412 2.10896,5.10732 v 11.759859 c 0,3.997818 -3.21846,7.216278 -7.21628,7.216278 H 70.024614 c -3.997817,0 -7.216277,-3.21846 -7.216277,-7.216278 V 39.352175 c 0,-3.997817 3.21846,-7.216277 7.216277,-7.216277 z"
         style="opacity:1;fill:#e1e1e1;fill-opacity:1;stroke:none;stroke-width:6.06500006;stroke-linecap:round;stroke-linejoin:round;stroke-miterlimit:4;stroke-dasharray:none;stroke-opacity:1;paint-order:markers fill stroke" />
      <path
         sodipodi:nodetypes="ccccccccccccccccccccccccccccccccccscssscscc"
         inkscape:connector-curvature="0"
         id="path2663"
         d="m 128.33389,39.128195 c -0.002,0.06982 -0.006,0.139588 -0.0108,0.209289 -0.0217,0.217329 -0.0543,0.433435 -0.0977,0.647506 -0.0433,0.21392 -0.0973,0.425541 -0.16175,0.63407 -0.0646,0.208603 -0.13966,0.413843 -0.22479,0.614949 -0.085,0.200993 -0.18007,0.397609 -0.28474,0.589112 -0.10466,0.191622 -0.21883,0.37789 -0.3421,0.558105 -0.12318,0.18012 -0.2553,0.35397 -0.39584,0.520898 -0.14058,0.167015 -0.28942,0.326895 -0.44597,0.479041 -0.15668,0.152118 -0.32087,0.296302 -0.49196,0.432015 -0.17096,0.135745 -0.3486,0.262856 -0.53226,0.380855 -0.18376,0.117922 -0.37331,0.226578 -0.56793,0.325561 -0.19455,0.09896 -0.39392,0.188124 -0.59738,0.267169 -0.20347,0.07922 -0.41078,0.148203 -0.62115,0.206705 -0.21039,0.05833 -0.42356,0.106106 -0.63872,0.143143 -0.21507,0.03716 -0.43186,0.06355 -0.64957,0.07906 -0.15428,0.01082 -0.30889,0.01617 -0.46354,0.01601 l -52.450999,5.3e-4 c -0.154659,3.7e-5 -0.309268,0.0056 -0.463536,0.01654 -0.217708,0.01551 -0.434502,0.0419 -0.649574,0.07906 -0.215161,0.03704 -0.428334,0.08481 -0.638722,0.143143 -0.210357,0.05833 -0.417666,0.127148 -0.621149,0.206189 -0.203465,0.07921 -0.402842,0.168553 -0.597379,0.267685 -0.194443,0.099 -0.383815,0.207655 -0.56741,0.325562 -0.183835,0.117985 -0.361654,0.245096 -0.532783,0.380854 -0.170911,0.135726 -0.334931,0.279911 -0.491443,0.432014 -0.156712,0.151966 -0.305726,0.311674 -0.446484,0.478526 -0.140557,0.167095 -0.272669,0.341119 -0.395841,0.521414 -0.12325,0.180046 -0.237426,0.366141 -0.342098,0.557588 -0.104685,0.191672 -0.199718,0.388462 -0.284737,0.58963 -0.08496,0.201115 -0.159816,0.406355 -0.224276,0.614949 -0.06462,0.208519 -0.11878,0.42014 -0.162264,0.634069 -0.04332,0.2139 -0.07591,0.429832 -0.09767,0.646988 -0.0046,0.07022 -0.008,0.14051 -0.01035,0.210842 0.05956,1.913694 0.85367,3.632326 2.112007,4.884742 1.258337,1.252413 2.980902,2.038612 4.897382,2.087441 0.06285,0.0016 0.121242,0.0186 0.184486,0.0186 h 51.11465 c 3.99781,0 7.21661,-3.218278 7.21661,-7.216095 v -5.880258 -5.879745 c 0,-0.0767 -0.0199,-0.147654 -0.0222,-0.223759 z"
         style="opacity:1;fill:#d9d9d9;fill-opacity:1;stroke:none;stroke-width:6.06500006;stroke-linecap:round;stroke-linejoin:round;stroke-miterlimit:4;stroke-dasharray:none;stroke-opacity:1;paint-order:markers fill stroke" />
    </g>
  </g>
</svg>
