<?xml version="1.0" encoding="UTF-8" standalone="no"?>
<!-- Created with Inkscape (http://www.inkscape.org/) -->

<svg
   xmlns:dc="http://purl.org/dc/elements/1.1/"
   xmlns:cc="http://creativecommons.org/ns#"
   xmlns:rdf="http://www.w3.org/1999/02/22-rdf-syntax-ns#"
   xmlns:svg="http://www.w3.org/2000/svg"
   xmlns="http://www.w3.org/2000/svg"
   xmlns:sodipodi="http://sodipodi.sourceforge.net/DTD/sodipodi-0.dtd"
   xmlns:inkscape="http://www.inkscape.org/namespaces/inkscape"
   width="128"
   height="48"
   viewBox="0 0 33.866665 12.7"
   version="1.1"
   id="svg2067"
   sodipodi:docname="text_button_pressed.svg"
   inkscape:version="0.92.4 (5da689c313, 2019-01-14)">
  <defs
     id="defs2061" />
  <sodipodi:namedview
     id="base"
     pagecolor="#ffffff"
     bordercolor="#666666"
     borderopacity="1.0"
     inkscape:pageopacity="0.0"
     inkscape:pageshadow="2"
     inkscape:zoom="7.919596"
     inkscape:cx="74.517478"
     inkscape:cy="14.049438"
     inkscape:document-units="mm"
     inkscape:current-layer="layer1"
     showgrid="false"
     inkscape:object-paths="true"
     inkscape:object-nodes="true"
     inkscape:snap-intersection-paths="true"
     inkscape:snap-smooth-nodes="true"
     inkscape:snap-midpoints="true"
     inkscape:snap-object-midpoints="true"
     inkscape:snap-center="true"
     inkscape:snap-bbox="true"
     inkscape:bbox-paths="true"
     inkscape:snap-bbox-edge-midpoints="true"
     inkscape:snap-bbox-midpoints="true"
     inkscape:bbox-nodes="true"
     fit-margin-top="0"
     fit-margin-left="0"
     fit-margin-right="0"
     fit-margin-bottom="0"
     inkscape:window-width="1920"
     inkscape:window-height="1001"
     inkscape:window-x="-9"
     inkscape:window-y="-9"
     inkscape:window-maximized="1"
     units="px" />
  <metadata
     id="metadata2064">
    <rdf:RDF>
      <cc:Work
         rdf:about="">
        <dc:format>image/svg+xml</dc:format>
        <dc:type
           rdf:resource="http://purl.org/dc/dcmitype/StillImage" />
        <dc:title></dc:title>
      </cc:Work>
    </rdf:RDF>
  </metadata>
  <g
     inkscape:label="Layer 1"
     inkscape:groupmode="layer"
     id="layer1"
     transform="translate(-62.808337,-47.215556)">
    <path
       style="opacity:1;fill:#e1e1e1;fill-opacity:1;stroke:none;stroke-width:2.69565558;stroke-linecap:round;stroke-linejoin:round;stroke-miterlimit:4;stroke-dasharray:none;stroke-opacity:1;paint-order:markers fill stroke"
       d="m 67.073777,48.273956 h 26.393898 c 0.888431,0 1.690264,0.357623 2.269987,0.937356 0.579723,0.579733 0.937342,1.381579 0.937342,2.270023 v 5.226841 c 0,1.776888 -1.430468,3.20738 -3.207329,3.20738 H 67.073777 c -1.77686,0 -3.207327,-1.430492 -3.207327,-3.20738 v -5.226841 c 0,-1.776888 1.430467,-3.207379 3.207327,-3.207379 z"
       id="rect2612"
       inkscape:connector-curvature="0"
       sodipodi:nodetypes="ssssssssss" />
    <path
       style="opacity:1;fill:#d9d9d9;fill-opacity:1;stroke:none;stroke-width:2.69565558;stroke-linecap:round;stroke-linejoin:round;stroke-miterlimit:4;stroke-dasharray:none;stroke-opacity:1;paint-order:markers fill stroke"
       d="m 96.665243,51.381825 c -8.9e-4,0.03104 -0.0029,0.06196 -0.005,0.09295 -0.0096,0.0966 -0.02392,0.192731 -0.04321,0.287878 -0.01924,0.09508 -0.04319,0.189165 -0.07185,0.281849 -0.02871,0.09272 -0.06215,0.183922 -0.09998,0.273307 -0.03778,0.08934 -0.08008,0.176636 -0.126607,0.261753 -0.04652,0.08516 -0.09694,0.168088 -0.151725,0.248187 -0.05475,0.08006 -0.113879,0.157414 -0.176345,0.231608 -0.06248,0.07423 -0.128365,0.144893 -0.197946,0.212517 -0.06964,0.0676 -0.142503,0.1321 -0.218546,0.19242 -0.07598,0.06034 -0.155002,0.116864 -0.236632,0.169311 -0.08167,0.05241 -0.166209,0.100697 -0.252708,0.144692 -0.08647,0.04398 -0.17484,0.08344 -0.265269,0.118566 -0.09043,0.03521 -0.182822,0.06593 -0.276323,0.09194 -0.0935,0.02593 -0.188229,0.04685 -0.283859,0.0633 -0.09559,0.01651 -0.191616,0.02828 -0.288379,0.03517 -0.06857,0.0048 -0.13725,0.0071 -0.205985,0.007 l -26.987993,5.03e-4 c -0.06874,1.7e-5 -0.137419,0.0026 -0.205985,0.0075 -0.09676,0.0069 -0.193291,0.01866 -0.288882,0.03517 -0.09563,0.01646 -0.19035,0.03737 -0.283858,0.0633 -0.09349,0.02593 -0.18538,0.05682 -0.27582,0.09194 -0.09043,0.0352 -0.179309,0.07451 -0.265771,0.118568 -0.08642,0.044 -0.170607,0.09228 -0.252207,0.144691 -0.0817,0.05244 -0.160573,0.10897 -0.236632,0.16931 -0.07596,0.06033 -0.148983,0.124817 -0.218545,0.192421 -0.06965,0.06754 -0.135888,0.138357 -0.19845,0.212517 -0.06247,0.07427 -0.121096,0.151474 -0.175842,0.231608 -0.05479,0.08002 -0.105203,0.162593 -0.151725,0.247685 -0.04653,0.08519 -0.08881,0.172843 -0.126606,0.262255 -0.03776,0.08939 -0.07133,0.180595 -0.09998,0.273307 -0.02872,0.09268 -0.05252,0.186765 -0.07185,0.281849 -0.01925,0.09507 -0.03404,0.190857 -0.04371,0.287375 -0.0021,0.03121 -0.0035,0.06269 -0.0045,0.09394 0.02648,0.85057 0.379716,1.614232 0.938993,2.170886 0.559277,0.556655 1.32462,0.906237 2.176413,0.92794 0.02793,7.11e-4 0.05379,0.0085 0.08189,0.0085 h 26.39365 c 0.110719,0 0.221904,-0.006 0.332087,-0.01708 3.35e-4,-3.4e-5 6.74e-4,3.4e-5 9.78e-4,0 1.619278,-0.16553 2.874252,-1.525824 2.874252,-3.190264 v -5.227007 c 0,-0.0032 -4.94e-4,-0.0064 -5.01e-4,-0.0096 0,0 -0.0081,-0.05935 -0.009,-0.08993 z"
       id="path2663"
       inkscape:connector-curvature="0"
       sodipodi:nodetypes="ccccccccccccccccccccccccccccccccccscssccssccc" />
  </g>
</svg>
